<?xml version="1.0" encoding="UTF-8"?>
<svg width="101px" height="28px" viewBox="0 0 101 28" version="1.1" xmlns="http://www.w3.org/2000/svg" xmlns:xlink="http://www.w3.org/1999/xlink">
    <title>Brand Logo</title>
    <g id="Page-1" stroke="none" stroke-width="1" fill="none" fill-rule="evenodd">
        <path d="M100.983284,22.7513417 C100.955855,22.4493622 100.873088,22.0922594 100.734981,21.6800335 C100.514107,21.2673281 100.321624,20.9653486 100.128179,20.745335 C100.045411,20.6633691 99.9352144,20.5531227 99.7417691,20.3882323 C99.6041438,20.1682186 99.5213761,20.0311295 99.4386085,19.9486843 L98.4453965,18.8217735 C98.2798612,18.6295612 98.0041294,18.3275817 97.6451487,17.9153557 L97.4247558,17.6953421 C97.3419881,17.558253 97.2592205,17.4480065 97.2317916,17.4206845 C97.2038816,17.3382393 97.0936851,17.2284722 96.9555786,17.0631024 L96.624508,16.7333217 C96.5970792,16.7059997 96.5143115,16.5962325 96.404115,16.4586641 C96.2660085,16.3210957 96.155812,16.2113285 96.1004732,16.1288833 C95.907509,15.8815477 95.7419737,15.6893354 95.5490096,15.497123 L95.3834743,15.3322326 C95.3007066,15.2219862 95.2453678,15.1400203 95.2179389,15.112219 C95.1077425,15.0024519 95.0249748,14.8922054 94.969636,14.8102395 L94.5832265,14.4253355 C94.5557976,14.3428903 94.47303,14.2604451 94.3628335,14.1506779 C94.224727,14.0131095 94.1145305,13.9033423 94.0866205,13.8208971 C94.0038528,13.7384519 94.0038528,13.6008835 94.0866205,13.4637944 L94.47303,13.0788904 C94.6106553,12.9413219 94.7487618,12.8315548 94.8589583,12.7491096 L95.9902767,11.6226781 C96.0730444,11.5948768 96.155812,11.5124316 96.2934373,11.3753425 C96.404115,11.2377741 96.4868827,11.1280069 96.5696503,11.1002056 L97.2317916,10.4406441 L97.5902911,10.0835413 C97.6730588,10.0562194 97.7832552,9.94645222 97.9213617,9.80888378 L98.1970935,9.53422624 C98.2798612,9.45178104 98.3626289,9.34153456 98.5007354,9.14932221 L98.9973413,8.68197298 C99.1349666,8.54488388 99.328412,8.32487024 99.548805,8.02289074 C99.7417691,7.72043191 99.9073044,7.39065112 100.017982,7.06087033 C100.10075,6.95110318 100.155607,6.75889083 100.238375,6.48375396 C100.266285,6.04420602 100.266285,5.57685679 100.238375,5.08266494 C100.128179,4.45042532 99.9073044,3.87330895 99.548805,3.37863777 C99.4386085,3.26887061 99.2730731,3.07665827 99.052199,2.77419943 L98.2524324,2.14243915 C97.8385941,1.9502268 97.4800946,1.83998031 97.1764528,1.75753512 C96.9830074,1.67508992 96.7072756,1.64776797 96.2934373,1.64776797 C96.155812,1.64776797 95.8800802,1.67508992 95.4388131,1.75753512 C95.2453678,1.83998031 95.0524036,1.92242551 94.8589583,2.03219266 C94.6106553,2.14243915 94.3349235,2.28000758 94.0866205,2.44441865 C93.8936564,2.63711033 93.5900145,2.93908983 93.1761762,3.37863777 C92.9283544,3.6810966 92.7349091,3.92843219 92.5972838,4.06600063 C92.5145161,4.17576778 92.3764096,4.34065817 92.1555355,4.53287052 C91.9625713,4.75288416 91.8244648,4.91777455 91.7142683,5.0275417 C91.576643,5.16511014 91.3831977,5.41244573 91.0795559,5.71490456 C90.9972694,5.82467172 90.8591629,5.98956211 90.6382887,6.20909641 C90.4727534,6.456432 90.3072181,6.67644564 90.1142539,6.84133603 L89.893861,7.06087033 C89.7831833,7.19843877 89.7004156,7.30820593 89.6729868,7.33552788 C89.5902192,7.44577436 89.4521127,7.63798671 89.2591485,7.8853223 C89.0382743,8.07753465 88.872739,8.24242504 88.7625425,8.35267153 L87.962776,9.3142126 C87.9348659,9.34153456 87.8520983,9.3966578 87.7419018,9.479103 C87.714473,9.56154819 87.6037953,9.67131535 87.46617,9.80888378 C87.4387412,9.83620574 87.3834023,9.91913027 87.3006347,10.0288974 C87.217867,10.1386646 87.1625282,10.2211098 87.1350993,10.2489111 L86.8314575,10.5508906 L86.7765999,10.6060138 C86.7765999,10.6060138 86.7486898,10.5782125 86.721261,10.4957673 L86.721261,10.1937878 L86.721261,9.42397975 L86.721261,8.84734271 L86.721261,8.62732907 C86.721261,7.41845241 86.7486898,6.456432 86.7765999,5.76954847 C86.7765999,5.46708964 86.7486898,5.1924321 86.721261,4.97289779 C86.6938322,4.61531572 86.5557257,4.20308973 86.3353327,3.6810966 C86.1144586,3.26887061 85.8382456,2.88444592 85.4797461,2.55466513 C85.2593531,2.36197345 85.0110502,2.19756239 84.7074083,2.03219266 L84.6520695,2.03219266 C84.6246407,2.00487071 84.6246407,1.97754875 84.6246407,1.97754875 C84.5144442,1.89510356 84.4316765,1.83998031 84.3489089,1.81265836 C84.2387124,1.78485707 83.9624994,1.70241187 83.5212323,1.59264472 C83.4938034,1.59264472 83.4105546,1.56532277 83.2729293,1.53800081 C83.1348228,1.51019953 83.0246263,1.48287757 82.9971975,1.48287757 C82.9692874,1.48287757 82.9144298,1.51019953 82.8316621,1.53800081 L82.7209845,1.53800081 C82.6382168,1.53800081 82.3350562,1.56532277 81.8110214,1.64776797 C81.7831114,1.64776797 81.6729149,1.67508992 81.5348084,1.75753512 C81.3971831,1.78485707 81.2865054,1.83998031 81.2590766,1.8677816 C81.1763089,1.89510356 81.0107736,2.00487071 80.7903806,2.14243915 C80.7624706,2.1697611 80.6797029,2.22488434 80.5695065,2.28000758 C80.4867388,2.36197345 80.4318812,2.41709669 80.3486323,2.44441865 C80.1556682,2.58198708 79.934794,2.80152139 79.714401,3.10398022 C79.6316334,3.2142267 79.5762945,3.32399386 79.4935269,3.40643905 C79.3833304,3.5986514 79.3005627,3.76354179 79.2177951,3.95623348 C79.2177951,3.98355543 79.189885,4.06600063 79.1624562,4.17576778 C79.0796886,4.25821298 79.0522597,4.31333622 79.0522597,4.39578141 C78.9694921,4.64311701 78.9420633,4.86265131 78.9420633,5.08266494 L78.9420633,5.63198003 L78.9420633,7.61066476 L78.9420633,8.13265789 C78.9694921,8.49023997 78.9694921,8.68197298 78.9420633,8.68197298 L78.9420633,9.12200025 L78.9420633,9.80888378 L78.9420633,11.5675549 C78.9420633,12.3646849 78.9694921,12.9413219 78.9969209,13.3535479 L78.9969209,13.7657739 C78.9694921,13.9857875 78.9694921,14.2331231 78.9969209,14.5351026 L78.9420633,15.0024519 C78.9420633,15.3322326 78.9694921,15.497123 78.9969209,15.497123 C78.9969209,15.6893354 78.9694921,15.9913149 78.9420633,16.4040202 L78.9420633,17.2557941 L78.9420633,18.3275817 L78.9420633,19.0964311 C78.9420633,19.3715679 78.9694921,19.5915816 78.9969209,19.7837939 C78.9969209,20.0311295 78.9694921,20.2506638 78.9420633,20.4433555 L78.9420633,21.982013 L78.9420633,22.5318074 L78.9420633,22.9986773 L78.9420633,23.8782525 L78.9420633,24.0153416 C78.9694921,24.1255881 78.9969209,24.2080333 78.9969209,24.2899991 C79.1350274,24.7022251 79.2731339,25.004684 79.3833304,25.2520195 C79.4107592,25.3617867 79.466098,25.4442319 79.4935269,25.4720332 C79.5209557,25.5544784 79.5762945,25.6091223 79.6037233,25.6369236 C79.7971687,25.9389031 80.0729005,26.2413619 80.45931,26.5433414 C80.9005771,26.8731222 81.3418442,27.0931358 81.8110214,27.202903 C82.142092,27.3131495 82.4731627,27.3677934 82.8316621,27.3677934 C83.1901616,27.3677934 83.5486611,27.3131495 83.8523029,27.202903 C84.4316765,27.0653345 84.9831401,26.763355 85.5350849,26.2964851 C85.8935844,25.8564579 86.1144586,25.5266771 86.2246551,25.3071428 C86.3353327,25.1422524 86.472958,24.8397936 86.6110646,24.4002456 C86.6938322,24.0977868 86.721261,23.7958073 86.721261,23.5484717 L86.721261,22.6415745 C86.721261,22.3391157 86.7486898,21.542465 86.6659222,21.2400062 L86.6659222,17.4753284 L86.6659222,16.8435681 L86.6659222,16.5689106 L86.6659222,16.4586641 C86.6938322,16.4586641 86.7486898,16.4864654 86.7765999,16.5137873 L86.8314575,16.5689106 L87.3006347,17.2006709 L87.7972406,17.8602325 C87.9902048,18.107568 88.1283113,18.2997804 88.2659366,18.4373488 C88.2659366,18.4373488 88.4040431,18.6295612 88.7072037,19.0417872 L89.2038097,19.6740268 L89.8385221,20.4979994 C89.865951,20.5258007 89.9212898,20.6082459 90.0040575,20.6906911 L90.1695928,20.8551022 C90.1970216,20.8829034 90.5006634,21.2951294 91.0795559,22.0922594 C91.2730012,22.3391157 91.576643,22.7240197 91.9904813,23.2186909 C92.1281066,23.4387045 92.3764096,23.768006 92.7349091,24.180232 C92.9283544,24.4275676 93.2315151,24.8124716 93.6732634,25.3071428 L93.728121,25.3617867 C93.728121,25.3891087 93.8108887,25.4993551 93.976424,25.6915675 L94.1419593,25.8564579 C94.2800658,26.1589167 94.3902623,26.2964851 94.5278876,26.3238071 C94.8868683,26.6535879 95.3281354,26.9009235 95.8800802,27.0931358 C95.9902767,27.1204578 96.2385797,27.202903 96.624508,27.3131495 C97.0936851,27.3131495 97.4521846,27.2853482 97.7004876,27.2580262 C98.058987,27.175581 98.4453965,27.0653345 98.831806,26.9282454 L99.052199,26.8184783 C99.3558408,26.5984646 99.4660373,26.5711427 99.6041438,26.4335743 C99.9626433,26.1311154 100.155607,25.9115811 100.238375,25.801814 C100.542017,25.2793415 100.707552,24.9495607 100.734981,24.8397936 C100.79032,24.7022251 100.845178,24.4826908 100.927945,24.180232 C101.011194,23.768006 101.011194,23.2733348 100.983284,22.7513417 L100.983284,22.7513417 Z M68.376675,9.75376054 C68.2939074,9.45178104 68.1832297,9.20444545 68.0456044,9.01175377 C67.6871049,8.70977427 67.3834631,8.57220583 67.1351601,8.57220583 L66.9696248,8.57220583 C66.7213218,8.54488388 66.3628223,8.51756192 65.8936452,8.51756192 L65.0385397,8.51756192 C64.6800403,8.49023997 64.4038273,8.46243868 64.2387731,8.46243868 C64.1560055,8.49023997 64.1280955,8.54488388 64.1280955,8.57220583 L64.1280955,8.73709623 L64.1280955,10.0288974 L64.1280955,10.8806713 L64.1280955,11.4573084 C64.1560055,11.5402329 64.1834343,11.5675549 64.1834343,11.5675549 L64.8176656,11.5675549 L65.1487362,11.5675549 L65.5904845,11.5675549 L66.2800547,11.5675549 L67.1351601,11.5675549 C67.1351601,11.5948768 67.1900177,11.6226781 67.3006954,11.6226781 L67.4108919,11.5675549 C67.7973014,11.3753425 68.0730332,11.1280069 68.2111397,10.8806713 C68.4041038,10.5235686 68.4594427,10.1386646 68.376675,9.75376054 L68.376675,9.75376054 Z M75.6592668,22.7513417 C75.6866956,22.943554 75.7146057,23.1908896 75.7146057,23.4933485 C75.7146057,23.8231292 75.631838,24.2080333 75.4937315,24.6749032 C75.4109638,24.8949168 75.3281962,25.0871292 75.2179997,25.2520195 C75.0798932,25.5544784 74.9417867,25.7740127 74.8315902,25.9115811 C74.4730907,26.2686839 74.1973589,26.5160195 73.9764848,26.6535879 L73.5073076,26.9833687 C73.0660405,27.175581 72.8177375,27.2580262 72.7903087,27.2580262 C72.4318092,27.3404714 72.1835062,27.3404714 71.9905421,27.3131495 C71.7696679,27.3131495 71.4939361,27.2853482 71.1902943,27.202903 C70.776456,27.0106906 70.3626177,26.763355 69.8939217,26.4335743 L69.6730476,26.2413619 C69.4247446,25.9940263 69.2317805,25.7740127 69.121584,25.6369236 C69.0662451,25.5266771 68.7905133,25.0871292 68.3213362,24.3451224 C68.1832297,24.0977868 68.0181756,23.8231292 67.852159,23.4933485 C67.8247302,23.4660265 67.7698726,23.35578 67.6871049,23.2186909 C67.603856,23.0811225 67.5489984,22.9713553 67.5210884,22.943554 C67.4936596,22.9162321 67.3281242,22.6688965 67.0798212,22.2566705 C66.942196,22.0093349 66.8040894,21.7624787 66.6664641,21.569787 C66.5832153,21.4600198 66.5004476,21.2951294 66.3902511,21.0751158 C66.2526258,20.8829034 66.1419482,20.745335 66.1145193,20.6355679 C65.8936452,20.3335884 65.700681,19.9760063 65.5351457,19.6189035 C65.3142715,19.344246 65.1766462,19.1242324 65.0933974,18.9866639 C64.9557721,18.6846844 64.8455756,18.4919927 64.7628079,18.3822256 C64.7348979,18.2997804 64.6800403,18.2173352 64.5972726,18.0797668 C64.5145049,17.9699996 64.4870761,17.8875544 64.4591661,17.8051092 C64.4317373,17.7777873 64.3763984,17.6680201 64.3489696,17.5304517 C64.266202,17.4206845 64.2387731,17.3382393 64.2387731,17.310438 L64.1280955,17.2006709 C64.1006666,17.2284722 64.0453278,17.2557941 64.017899,17.2557941 L64.017899,17.310438 C64.0453278,17.6128969 64.0727566,17.9699996 64.0727566,18.4373488 L64.0727566,19.8935611 C64.1006666,20.1960199 64.1280955,20.5531227 64.1280955,21.0204719 C64.1006666,21.0204719 64.0727566,21.1029171 64.0727566,21.2400062 L64.1280955,21.4600198 L64.1280955,23.1089238 C64.1280955,23.4109033 64.1006666,23.6304376 64.0727566,23.768006 C64.0727566,23.8782525 64.0453278,23.9602183 64.017899,24.0153416 C64.017899,24.0431429 63.9904702,24.0977868 63.9625601,24.180232 C63.9351313,24.3724443 63.8802737,24.4826908 63.8523637,24.565136 C63.7142572,24.977362 63.549203,25.3344647 63.3557577,25.6369236 C63.1627935,25.9389031 62.8042941,26.2686839 62.3351169,26.6535879 C62.2523493,26.7360331 62.114724,26.8184783 61.9212786,26.9282454 C61.7283145,27.0106906 61.6176368,27.0653345 61.5348691,27.0931358 C61.4525827,27.0931358 61.341905,27.1204578 61.1489408,27.202903 C61.0108343,27.2307043 60.9280667,27.2580262 60.845299,27.2580262 L60.2938354,27.2580262 L59.5489265,27.0931358 C59.3559623,27.0106906 59.190427,26.9282454 58.9974629,26.8184783 C58.8867852,26.790677 58.5836245,26.5984646 58.0865374,26.2413619 C57.8935732,26.0213483 57.7554667,25.8291359 57.6452702,25.6369236 C57.5076449,25.4442319 57.3969673,25.2793415 57.2867708,25.1144511 C57.2040031,24.8949168 57.1486643,24.7300264 57.0658966,24.6197799 C57.0658966,24.5378141 57.0384678,24.4275676 56.9557001,24.2899991 C56.9282713,24.180232 56.9008425,24.0977868 56.9008425,24.0153416 C56.9008425,23.8782525 56.8729325,23.7958073 56.8455037,23.7133621 L56.8455037,23.1089238 L56.8455037,21.6800335 L56.8455037,21.2400062 L56.8455037,18.4919927 L56.8455037,17.9699996 L56.8455037,16.8435681 L56.8455037,16.4040202 L56.8455037,15.936671 L56.8455037,15.497123 L56.8455037,15.0575751 L56.8455037,14.5351026 L56.8455037,14.4253355 C56.8729325,14.4253355 56.8729325,14.287767 56.8455037,14.0409108 L56.8455037,13.6833287 L56.8455037,13.1886575 L56.8455037,12.501774 L56.8455037,11.8422124 L56.8455037,8.13265789 L56.8455037,5.63198003 C56.8455037,5.27487729 56.8729325,5.00021975 56.9008425,4.80752807 C56.983129,4.34065817 57.0938066,3.92843219 57.2319131,3.57132945 C57.3141996,3.46108296 57.3695384,3.32399386 57.4523061,3.15910346 C57.5350738,3.04885698 57.6731803,2.85664463 57.8661444,2.55466513 C58.1144474,2.28000758 58.417608,2.05999395 58.7765887,1.8677816 C59.0797493,1.67508992 59.4935876,1.56532277 60.0181036,1.48287757 C60.2659254,1.45555562 60.596996,1.42775433 61.0108343,1.42775433 L61.1489408,1.42775433 L62.0314751,1.42775433 L62.2249204,1.42775433 C62.3351169,1.45555562 62.4178846,1.48287757 62.4453134,1.48287757 C62.6661876,1.48287757 62.8317229,1.45555562 62.9419194,1.42775433 L63.1074547,1.42775433 C63.1902224,1.45555562 63.2455612,1.48287757 63.27299,1.48287757 C63.27299,1.45555562 63.4938642,1.42775433 63.9077025,1.42775433 L64.5419338,1.48287757 C64.5419338,1.45555562 64.6247014,1.42775433 64.8176656,1.42775433 L65.1487362,1.48287757 L66.0591805,1.48287757 L66.8040894,1.48287757 L67.9902655,1.48287757 C68.4041038,1.48287757 68.6798356,1.51019953 68.8727998,1.53800081 C69.0109063,1.62044601 69.3145481,1.64776797 69.3973158,1.64776797 C69.4247446,1.64776797 69.5075123,1.67508992 69.6177087,1.70241187 C69.8111541,1.73021316 69.9213506,1.78485707 70.0041182,1.81265836 C70.1696535,1.83998031 70.4179565,1.9502268 70.7490272,2.0873159 C71.1628655,2.22488434 71.4660261,2.36197345 71.6594715,2.49954189 C72.0179709,2.69175424 72.3211315,2.85664463 72.5420057,3.04885698 C72.7349698,3.24154866 72.9005052,3.35131581 73.0111829,3.40643905 L73.3971111,3.79086375 C73.5905565,4.03819934 73.8383783,4.36798013 74.1420201,4.75288416 C74.2247878,4.83532935 74.3628943,5.05534299 74.3628943,5.13730885 C74.5558584,5.38512378 74.6939649,5.63198003 74.8041614,5.87931562 C74.9417867,6.31886356 75.0250356,6.56619915 75.0524644,6.64864435 C75.1900897,7.06087033 75.3007674,7.39065112 75.3281962,7.61066476 C75.3561062,7.72043191 75.383535,7.85800035 75.383535,8.02289074 C75.4663027,8.24242504 75.4937315,8.37999348 75.4937315,8.46243868 C75.4937315,8.57220583 75.5211603,8.70977427 75.5490703,8.84734271 C75.5764992,9.03955506 75.603928,9.1771235 75.603928,9.25956869 L75.603928,9.58934948 C75.631838,9.72643859 75.6592668,9.83620574 75.6592668,9.91913027 L75.6592668,10.7704249 C75.631838,10.8528701 75.603928,10.9631165 75.603928,11.1002056 C75.5764992,11.2377741 75.5490703,11.3475412 75.5490703,11.4026645 L75.383535,12.3920068 C75.3561062,12.474452 75.3007674,12.5568972 75.2728573,12.6944657 C75.1900897,12.886678 75.135232,12.9964452 75.1078032,13.0788904 C75.0250356,13.3813492 74.9696967,13.5735615 74.886929,13.6833287 L74.6386261,14.2053218 L74.3075554,14.699993 C74.3075554,14.7277943 74.2801266,14.7824382 74.1973589,14.8375615 C74.1145913,14.9200067 74.0866812,14.9746506 74.0866812,15.0024519 C73.949056,15.1946642 73.7835206,15.3595546 73.6179853,15.5517669 L73.1213793,16.0191162 C72.7623987,16.3210957 72.5145769,16.5137873 72.3764704,16.6235545 C72.3490416,16.7333217 72.3211315,16.8162462 72.3211315,16.8435681 C72.3490416,16.9260133 72.4038992,16.9806572 72.4318092,17.0084585 C72.5145769,17.0909037 72.5699157,17.2006709 72.6247734,17.3655613 C72.8177375,17.6128969 72.9284152,17.8051092 73.0111829,17.9153557 C73.0934693,18.0524448 73.2315758,18.2451365 73.45245,18.4919927 C73.6179853,18.7944516 73.7281818,19.0144652 73.8109494,19.1515543 C73.8383783,19.2339995 73.949056,19.3164447 74.0866812,19.4540131 C74.1973589,19.6462255 74.2801266,19.7559926 74.3075554,19.8384378 C74.6111972,20.2784651 74.8041614,20.6082459 74.9417867,20.8551022 C75.0798932,20.9926706 75.2454285,21.2673281 75.383535,21.6800335 C75.4663027,21.8444445 75.5211603,22.0644582 75.603928,22.3117937 C75.603928,22.5318074 75.631838,22.6688965 75.6592668,22.7513417 L75.6592668,22.7513417 Z M12.7173474,18.3275817 C12.6345798,18.13489 12.5797221,17.9978009 12.4969545,17.9153557 C12.3035091,17.6680201 12.0831162,17.5031297 11.862242,17.4753284 L11.2001007,17.4753284 C10.9243689,17.4480065 10.5379594,17.4206845 10.0692635,17.4206845 C9.87581813,17.3928832 9.57265751,17.3655613 9.1588192,17.3655613 L8.24837492,17.3655613 L8.02798196,17.3655613 C8.00007194,17.3928832 7.9452143,17.4206845 7.91778549,17.4206845 L7.91778549,17.5855749 L7.91778549,18.2451365 L7.91778549,18.9866639 L7.91778549,19.0417872 L7.91778549,19.6740268 L8.02798196,19.7837939 L8.57944557,19.7837939 L9.04862272,19.7837939 C9.13139038,19.8111159 9.24158686,19.8384378 9.37969337,19.8384378 L9.71076401,19.8384378 L10.17946,19.8384378 L10.3449953,19.8384378 L10.455673,19.8384378 L10.7314048,19.8384378 L11.4763137,19.8384378 C11.6692779,19.8662391 11.8348132,19.8384378 12.0277773,19.7286707 C12.3862768,19.4262119 12.5797221,19.1793556 12.6620086,18.9866639 C12.7452575,18.6846844 12.7452575,18.4646708 12.7173474,18.3275817 L12.7173474,18.3275817 Z M7.91778549,10.3308769 C7.9452143,10.4406441 7.97264312,10.5235686 7.97264312,10.5508906 L8.0828396,10.6606577 L8.46924909,10.6606577 L8.63478441,10.6606577 L9.1588192,10.6606577 L9.60008633,10.6606577 C9.90372816,10.6606577 10.1520311,10.6333358 10.2901376,10.5508906 C10.5105306,10.3586782 10.6486371,10.2489111 10.7314048,10.1937878 L10.8416013,10.1386646 C10.9517977,9.89132898 11.0071366,9.64399339 11.0071366,9.42397975 C10.9797078,9.1771235 10.8690301,8.98443182 10.7314048,8.84734271 L10.6760659,8.79221947 C10.4277629,8.57220583 10.1246023,8.46243868 9.82096049,8.46243868 L9.26949689,8.46243868 C9.04862272,8.43511673 8.8830874,8.40731544 8.80031974,8.40731544 L8.52458793,8.40731544 L8.02798196,8.40731544 L7.97264312,8.46243868 C7.9452143,8.54488388 7.91778549,8.57220583 7.91778549,8.57220583 L7.91778549,9.479103 L7.91778549,10.3308769 Z M20.5244552,18.547116 C20.5518841,18.7393283 20.5797941,18.93202 20.5797941,19.1515543 L20.5797941,19.8935611 C20.4970264,20.0311295 20.4691164,20.3609103 20.4691164,20.4979994 L20.4691164,20.745335 C20.3863487,20.9653486 20.3589199,21.130239 20.3589199,21.2400062 C20.3589199,21.3224514 20.3310099,21.4048966 20.2761523,21.5146637 C20.2487234,21.6522322 20.2208134,21.7346774 20.2208134,21.7624787 C20.138527,21.8995678 20.0278493,22.2293485 19.8348851,22.6966978 C19.5312433,23.2186909 19.2555115,23.6582388 18.9792985,24.0153416 C18.5380314,24.5378141 18.2069607,24.8949168 17.9586577,25.1144511 C17.4346229,25.4720332 17.0761235,25.7188894 16.8278205,25.8564579 C16.4139822,26.0764715 16.0554827,26.2413619 15.7244121,26.378451 C14.9795031,26.5984646 14.4554683,26.7360331 14.1797365,26.763355 C13.7379882,26.8458002 13.4069176,26.8731222 13.1590958,26.8731222 C12.5518121,26.8731222 12.0831162,26.8458002 11.7520455,26.8184783 L10.455673,26.8184783 C9.84838931,26.8184783 9.37969337,26.790677 9.04862272,26.763355 L6.31728989,26.763355 L5.71048744,26.763355 L3.72454477,26.763355 C3.53109942,26.763355 3.36604531,26.7360331 3.17259996,26.6535879 C2.59322633,26.5160195 2.12453038,26.2686839 1.73812089,25.9667044 C1.43447906,25.7188894 1.24151492,25.5266771 1.13131844,25.4169099 C0.993211939,25.2246976 0.855586641,25.0598072 0.717480136,24.8949168 C0.690051318,24.7846703 0.607283656,24.6475812 0.496605969,24.4553689 C0.358980672,24.15291 0.248784192,23.9602183 0.220874167,23.8231292 C0.220874167,23.740684 0.193445349,23.6304376 0.110677687,23.4387045 C0.0827676616,23.2460129 0.0553388435,23.1362457 0.0553388435,23.0538005 C0.0553388435,22.9713553 0.0279100254,22.8337869 0,22.6415745 L0,22.2566705 L0,22.2020266 L0,21.982013 C0.0279100254,21.8444445 0.0553388435,21.7346774 0.0553388435,21.7073554 L0.0553388435,21.2400062 L0.0553388435,20.6355679 L0.0553388435,19.7837939 L0.0553388435,18.7120064 L0.0553388435,17.3655613 L0.0553388435,15.8815477 L0.0553388435,15.1673422 L0.0553388435,14.0955547 C0.0827676616,14.0955547 0.110677687,13.9579862 0.110677687,13.71113 L0.0553388435,13.298904 L0.0553388435,12.0071028 L0.0553388435,10.6606577 L0.0553388435,9.14932221 L0.0553388435,8.90198662 C0.0827676616,8.76489751 0.110677687,8.65465103 0.110677687,8.57220583 L0.110677687,8.13265789 C0.0827676616,7.9677675 0.0553388435,7.85800035 0.0553388435,7.77555515 L0.0553388435,6.64864435 L0.0553388435,6.04420602 L0.0553388435,5.13730885 C0.0553388435,4.88997326 0.0827676616,4.69776091 0.110677687,4.58799376 C0.138106505,4.50554857 0.193445349,4.36798013 0.220874167,4.17576778 C0.303641828,3.95623348 0.358980672,3.79086375 0.38640949,3.6810966 C0.634712474,3.26887061 0.772337772,3.02153502 0.855586641,2.93908983 C1.04855078,2.69175424 1.32428259,2.38977474 1.73812089,2.0873159 C1.84831737,1.97754875 1.95899506,1.89510356 2.09662036,1.8677816 C2.31749452,1.73021316 2.56579751,1.62044601 2.81410049,1.53800081 C2.89686815,1.51019953 2.97963582,1.48287757 3.11774232,1.48287757 C3.2279388,1.40043237 3.31070646,1.37263109 3.39347412,1.37263109 L3.72454477,1.37263109 C3.86217007,1.34530913 3.97284776,1.31798718 4.05561542,1.31798718 C4.30343719,1.34530913 4.63450784,1.37263109 5.07625617,1.37263109 C5.57286214,1.37263109 5.95879043,1.40043237 6.20709341,1.42775433 L6.89714473,1.42775433 L7.28307301,1.42775433 L7.61414366,1.42775433 L8.24837492,1.42775433 C8.44133907,1.45555562 8.63478441,1.48287757 8.82774856,1.48287757 L10.17946,1.48287757 L10.5105306,1.48287757 C10.6486371,1.48287757 10.8416013,1.51019953 11.0624754,1.53800081 C11.2554396,1.56532277 11.4209749,1.59264472 11.5311714,1.59264472 C11.613939,1.59264472 11.6967067,1.62044601 11.8073844,1.70241187 C11.9450097,1.73021316 12.0556874,1.75753512 12.0831162,1.75753512 C12.3862768,1.83998031 12.6345798,1.89510356 12.8280251,1.97754875 C13.0209893,2.00487071 13.2692923,2.11463786 13.5729341,2.2522063 C14.0142012,2.44441865 14.3173618,2.60930904 14.5108072,2.71907619 C14.786539,2.85664463 14.9795031,2.96689111 15.0896996,3.04885698 C15.3105738,3.18642542 15.5314479,3.35131581 15.7797509,3.5162062 C15.8625186,3.5986514 15.9727151,3.70841855 16.1656792,3.84598699 L16.4967498,4.17576778 L17.0761235,4.91777455 C17.1035523,5.00021975 17.2416588,5.16511014 17.462533,5.46708964 C17.6554971,5.74222652 17.7936036,6.01688406 17.9038001,6.31886356 C17.9586577,6.5388772 18.0693354,6.84133603 18.2069607,7.22576073 C18.2897284,7.44577436 18.3176384,7.63798671 18.3176384,7.77555515 C18.3176384,7.80287711 18.3450672,7.8853223 18.3729772,8.02289074 C18.4004061,8.13265789 18.4278349,8.21510309 18.4278349,8.24242504 L18.4278349,8.68197298 C18.4557449,8.90198662 18.4831737,9.06687701 18.4831737,9.14932221 C18.4831737,9.50690428 18.4557449,9.78156183 18.4278349,9.97377418 C18.4278349,10.276233 18.3729772,10.6060138 18.2622996,10.9357946 C18.2348707,11.0177604 18.1795319,11.1553289 18.1521031,11.3753425 C18.0693354,11.5675549 18.0419066,11.7051233 18.0419066,11.7870892 C18.0139966,11.8700137 17.9865678,11.9246576 17.9586577,12.0071028 C17.9312289,12.1446712 17.8210324,12.3368836 17.6829259,12.5842192 C17.5448194,12.886678 17.4071941,13.0788904 17.2969976,13.1886575 L17.2416588,13.2437808 L17.2416588,13.298904 C17.2416588,13.4359931 17.2690876,13.5457603 17.3523365,13.5735615 C17.8210324,13.9306643 18.0419066,14.0955547 18.0419066,14.0955547 C18.3450672,14.3155683 18.5380314,14.4804587 18.648709,14.5902259 C18.7314767,14.6726711 18.7868156,14.7551163 18.869102,14.8375615 L19.145315,15.112219 C19.2829403,15.3044314 19.393618,15.4698011 19.5038145,15.6620134 C19.6967786,15.9639929 19.8623139,16.3210957 20.0552781,16.6786777 L20.3589199,17.4753284 C20.3589199,17.558253 20.3863487,17.6680201 20.4142588,17.8602325 C20.4970264,18.1626913 20.5244552,18.4095475 20.5244552,18.547116 L20.5244552,18.547116 Z M51.0219325,12.2923057 C49.4142188,11.3235746 46.9990392,12.2937437 45.6271171,14.4598474 C44.2556762,16.6254718 44.4467155,19.166893 46.0544292,20.135624 C47.6616617,21.1048344 50.0768413,20.1346654 51.4487634,17.9685616 C52.8206855,15.8024579 52.629165,13.2615161 51.0219325,12.2923057 L51.0219325,12.2923057 Z M42.0844687,17.0051032 C41.6561941,16.0052155 41.2375438,15.0005345 40.8188934,14.0006468 C40.5085146,13.2691854 40.0537737,12.6043512 39.481137,12.0430528 C38.5562565,11.2066175 37.1954021,11.0191984 36.069377,11.5737862 C35.3538217,11.9375996 34.7032294,12.4135768 34.1445476,12.9820652 C32.5517514,14.4373188 30.819405,15.6576994 28.6491599,16.1696266 C26.4789148,16.6810744 25.314393,18.7091304 25.2807085,20.4975201 C25.2090086,22.0615822 26.0169558,23.538885 27.3883967,24.351833 C28.1790203,24.8805368 29.0793592,25.2333256 30.0254129,25.3847947 C32.7937987,25.8372846 35.5179134,26.5188954 38.167441,27.421958 L39.8564787,27.9525791 C40.337686,27.9760664 40.6793432,28.0038677 41.0306246,27.9995537 C41.3737254,27.9976363 41.7163451,27.972711 42.0555962,27.9242985 C43.8962143,27.7162681 45.3239564,26.2581385 45.45292,24.4548895 C45.5708158,23.2129389 45.2296398,21.9709883 44.4905053,20.9533653 C43.5430081,19.7267534 42.7360234,18.4028369 42.0844687,17.0051032 L42.0844687,17.0051032 Z M42.317373,11.7990725 C44.1637656,12.6786477 46.6698934,11.3748632 47.9152579,8.88664798 C49.1611037,6.39843276 48.6741219,3.66863395 46.8282106,2.78905874 C44.9822992,1.90948353 42.4761714,3.21374737 41.2308069,5.70148325 C39.9849611,8.18969847 40.4714617,10.9194973 42.317373,11.7990725 L42.317373,11.7990725 Z M34.4554076,10.0092448 C36.5043884,10.1487306 38.3262394,8.02289074 38.5244968,5.26097665 C38.722273,2.49858322 37.2213873,0.146019119 35.1719253,0.00653334983 C33.1229445,-0.133431752 31.3010935,1.99240806 31.1028361,4.75480149 C30.9050599,7.51671558 32.4059455,9.86927968 34.4554076,10.0092448 L34.4554076,10.0092448 Z M26.9572349,15.4132398 C25.0684961,15.4702804 23.4718502,13.4537284 23.3910073,10.9084726 C23.3106457,8.36369618 24.7764032,6.254633 26.665142,6.19807176 C28.5538808,6.14103119 30.1500456,8.15758319 30.2308884,10.7023596 C30.31125,13.2471361 28.8454925,15.3561993 26.9572349,15.4132398 L26.9572349,15.4132398 Z" id="Brand-Logo" fill="#FEFEFE"></path>
    </g>
</svg>